<mxfile host="app.diagrams.net" modified="2021-11-18T10:49:49.020Z" agent="5.0 (Windows NT 6.1; Win64; x64) AppleWebKit/537.36 (KHTML, like Gecko) Chrome/96.0.4664.45 Safari/537.36" etag="j2ABr4KZHUlCG7hr35z_" version="15.8.2" type="github">
  <diagram id="C5RBs43oDa-KdzZeNtuy" name="Page-1">
    <mxGraphModel dx="2249" dy="1963" grid="1" gridSize="10" guides="1" tooltips="1" connect="1" arrows="1" fold="1" page="1" pageScale="1" pageWidth="827" pageHeight="1169" math="0" shadow="0">
      <root>
        <mxCell id="WIyWlLk6GJQsqaUBKTNV-0" />
        <mxCell id="WIyWlLk6GJQsqaUBKTNV-1" parent="WIyWlLk6GJQsqaUBKTNV-0" />
        <mxCell id="9wXawAvI4jXOEfdN_TBU-1" value="interface Input" style="swimlane;fontStyle=2;align=center;verticalAlign=top;childLayout=stackLayout;horizontal=1;startSize=26;horizontalStack=0;resizeParent=1;resizeLast=0;collapsible=1;marginBottom=0;rounded=0;shadow=0;strokeWidth=1;" vertex="1" parent="WIyWlLk6GJQsqaUBKTNV-1">
          <mxGeometry x="190" y="20" width="100" height="70" as="geometry">
            <mxRectangle x="230" y="140" width="160" height="26" as="alternateBounds" />
          </mxGeometry>
        </mxCell>
        <mxCell id="9wXawAvI4jXOEfdN_TBU-5" value="" style="line;html=1;strokeWidth=1;align=left;verticalAlign=middle;spacingTop=-1;spacingLeft=3;spacingRight=3;rotatable=0;labelPosition=right;points=[];portConstraint=eastwest;" vertex="1" parent="9wXawAvI4jXOEfdN_TBU-1">
          <mxGeometry y="26" width="100" height="8" as="geometry" />
        </mxCell>
        <mxCell id="9wXawAvI4jXOEfdN_TBU-6" value="playerTurn();" style="text;align=left;verticalAlign=top;spacingLeft=4;spacingRight=4;overflow=hidden;rotatable=0;points=[[0,0.5],[1,0.5]];portConstraint=eastwest;" vertex="1" parent="9wXawAvI4jXOEfdN_TBU-1">
          <mxGeometry y="34" width="100" height="26" as="geometry" />
        </mxCell>
        <mxCell id="9wXawAvI4jXOEfdN_TBU-7" value="interface Output" style="swimlane;fontStyle=2;align=center;verticalAlign=top;childLayout=stackLayout;horizontal=1;startSize=26;horizontalStack=0;resizeParent=1;resizeLast=0;collapsible=1;marginBottom=0;rounded=0;shadow=0;strokeWidth=1;" vertex="1" parent="WIyWlLk6GJQsqaUBKTNV-1">
          <mxGeometry x="540" y="20" width="122" height="70" as="geometry">
            <mxRectangle x="230" y="140" width="160" height="26" as="alternateBounds" />
          </mxGeometry>
        </mxCell>
        <mxCell id="9wXawAvI4jXOEfdN_TBU-11" value="" style="line;html=1;strokeWidth=1;align=left;verticalAlign=middle;spacingTop=-1;spacingLeft=3;spacingRight=3;rotatable=0;labelPosition=right;points=[];portConstraint=eastwest;" vertex="1" parent="9wXawAvI4jXOEfdN_TBU-7">
          <mxGeometry y="26" width="122" height="8" as="geometry" />
        </mxCell>
        <mxCell id="9wXawAvI4jXOEfdN_TBU-12" value="printTurn(String turn);" style="text;align=left;verticalAlign=top;spacingLeft=4;spacingRight=4;overflow=hidden;rotatable=0;points=[[0,0.5],[1,0.5]];portConstraint=eastwest;" vertex="1" parent="9wXawAvI4jXOEfdN_TBU-7">
          <mxGeometry y="34" width="122" height="26" as="geometry" />
        </mxCell>
        <mxCell id="9wXawAvI4jXOEfdN_TBU-13" value="ConsoleInput" style="swimlane;fontStyle=2;align=center;verticalAlign=top;childLayout=stackLayout;horizontal=1;startSize=26;horizontalStack=0;resizeParent=1;resizeLast=0;collapsible=1;marginBottom=0;rounded=0;shadow=0;strokeWidth=1;" vertex="1" parent="WIyWlLk6GJQsqaUBKTNV-1">
          <mxGeometry x="120" y="120" width="200" height="90" as="geometry">
            <mxRectangle x="230" y="140" width="160" height="26" as="alternateBounds" />
          </mxGeometry>
        </mxCell>
        <mxCell id="9wXawAvI4jXOEfdN_TBU-14" value="Scanner scanner" style="text;align=left;verticalAlign=top;spacingLeft=4;spacingRight=4;overflow=hidden;rotatable=0;points=[[0,0.5],[1,0.5]];portConstraint=eastwest;" vertex="1" parent="9wXawAvI4jXOEfdN_TBU-13">
          <mxGeometry y="26" width="200" height="26" as="geometry" />
        </mxCell>
        <mxCell id="9wXawAvI4jXOEfdN_TBU-17" value="" style="line;html=1;strokeWidth=1;align=left;verticalAlign=middle;spacingTop=-1;spacingLeft=3;spacingRight=3;rotatable=0;labelPosition=right;points=[];portConstraint=eastwest;" vertex="1" parent="9wXawAvI4jXOEfdN_TBU-13">
          <mxGeometry y="52" width="200" height="8" as="geometry" />
        </mxCell>
        <mxCell id="9wXawAvI4jXOEfdN_TBU-18" value="Coord playerTurn(String question)" style="text;align=left;verticalAlign=top;spacingLeft=4;spacingRight=4;overflow=hidden;rotatable=0;points=[[0,0.5],[1,0.5]];portConstraint=eastwest;" vertex="1" parent="9wXawAvI4jXOEfdN_TBU-13">
          <mxGeometry y="60" width="200" height="26" as="geometry" />
        </mxCell>
        <mxCell id="9wXawAvI4jXOEfdN_TBU-139" style="edgeStyle=orthogonalEdgeStyle;rounded=0;orthogonalLoop=1;jettySize=auto;html=1;entryX=0;entryY=0.5;entryDx=0;entryDy=0;endArrow=open;endFill=0;targetPerimeterSpacing=13;" edge="1" parent="WIyWlLk6GJQsqaUBKTNV-1" source="9wXawAvI4jXOEfdN_TBU-26" target="9wXawAvI4jXOEfdN_TBU-122">
          <mxGeometry relative="1" as="geometry" />
        </mxCell>
        <mxCell id="9wXawAvI4jXOEfdN_TBU-26" value="ValidateInput" style="swimlane;fontStyle=2;align=center;verticalAlign=top;childLayout=stackLayout;horizontal=1;startSize=26;horizontalStack=0;resizeParent=1;resizeLast=0;collapsible=1;marginBottom=0;rounded=0;shadow=0;strokeWidth=1;" vertex="1" parent="WIyWlLk6GJQsqaUBKTNV-1">
          <mxGeometry x="120" y="230" width="200" height="90" as="geometry">
            <mxRectangle x="230" y="140" width="160" height="26" as="alternateBounds" />
          </mxGeometry>
        </mxCell>
        <mxCell id="9wXawAvI4jXOEfdN_TBU-30" value="" style="line;html=1;strokeWidth=1;align=left;verticalAlign=middle;spacingTop=-1;spacingLeft=3;spacingRight=3;rotatable=0;labelPosition=right;points=[];portConstraint=eastwest;" vertex="1" parent="9wXawAvI4jXOEfdN_TBU-26">
          <mxGeometry y="26" width="200" height="8" as="geometry" />
        </mxCell>
        <mxCell id="9wXawAvI4jXOEfdN_TBU-31" value="Coord playerTurn(String question)" style="text;align=left;verticalAlign=top;spacingLeft=4;spacingRight=4;overflow=hidden;rotatable=0;points=[[0,0.5],[1,0.5]];portConstraint=eastwest;" vertex="1" parent="9wXawAvI4jXOEfdN_TBU-26">
          <mxGeometry y="34" width="200" height="26" as="geometry" />
        </mxCell>
        <mxCell id="9wXawAvI4jXOEfdN_TBU-43" value="" style="endArrow=none;html=1;rounded=0;entryX=0;entryY=0;entryDx=0;entryDy=0;entryPerimeter=0;dashed=1;targetPerimeterSpacing=13;" edge="1" parent="9wXawAvI4jXOEfdN_TBU-26" target="9wXawAvI4jXOEfdN_TBU-31">
          <mxGeometry width="50" height="50" relative="1" as="geometry">
            <mxPoint x="-40" y="34" as="sourcePoint" />
            <mxPoint x="-20" y="90" as="targetPoint" />
            <Array as="points">
              <mxPoint x="-20" y="34" />
            </Array>
          </mxGeometry>
        </mxCell>
        <mxCell id="9wXawAvI4jXOEfdN_TBU-138" style="edgeStyle=orthogonalEdgeStyle;rounded=0;orthogonalLoop=1;jettySize=auto;html=1;entryX=1;entryY=0.5;entryDx=0;entryDy=0;endArrow=open;endFill=0;targetPerimeterSpacing=13;" edge="1" parent="WIyWlLk6GJQsqaUBKTNV-1" source="9wXawAvI4jXOEfdN_TBU-32" target="9wXawAvI4jXOEfdN_TBU-113">
          <mxGeometry relative="1" as="geometry" />
        </mxCell>
        <mxCell id="9wXawAvI4jXOEfdN_TBU-32" value="ConsoleOutput" style="swimlane;fontStyle=2;align=center;verticalAlign=top;childLayout=stackLayout;horizontal=1;startSize=26;horizontalStack=0;resizeParent=1;resizeLast=0;collapsible=1;marginBottom=0;rounded=0;shadow=0;strokeWidth=1;" vertex="1" parent="WIyWlLk6GJQsqaUBKTNV-1">
          <mxGeometry x="521" y="120" width="160" height="80" as="geometry">
            <mxRectangle x="230" y="140" width="160" height="26" as="alternateBounds" />
          </mxGeometry>
        </mxCell>
        <mxCell id="9wXawAvI4jXOEfdN_TBU-36" value="" style="line;html=1;strokeWidth=1;align=left;verticalAlign=middle;spacingTop=-1;spacingLeft=3;spacingRight=3;rotatable=0;labelPosition=right;points=[];portConstraint=eastwest;" vertex="1" parent="9wXawAvI4jXOEfdN_TBU-32">
          <mxGeometry y="26" width="160" height="8" as="geometry" />
        </mxCell>
        <mxCell id="9wXawAvI4jXOEfdN_TBU-37" value="printTurn(String turn);" style="text;align=left;verticalAlign=top;spacingLeft=4;spacingRight=4;overflow=hidden;rotatable=0;points=[[0,0.5],[1,0.5]];portConstraint=eastwest;" vertex="1" parent="9wXawAvI4jXOEfdN_TBU-32">
          <mxGeometry y="34" width="160" height="26" as="geometry" />
        </mxCell>
        <mxCell id="9wXawAvI4jXOEfdN_TBU-40" value="" style="endArrow=none;dashed=1;html=1;rounded=0;" edge="1" parent="WIyWlLk6GJQsqaUBKTNV-1">
          <mxGeometry width="50" height="50" relative="1" as="geometry">
            <mxPoint x="80" y="260" as="sourcePoint" />
            <mxPoint x="80" y="70" as="targetPoint" />
          </mxGeometry>
        </mxCell>
        <mxCell id="9wXawAvI4jXOEfdN_TBU-42" value="" style="endArrow=none;dashed=1;html=1;rounded=0;" edge="1" parent="WIyWlLk6GJQsqaUBKTNV-1">
          <mxGeometry width="50" height="50" relative="1" as="geometry">
            <mxPoint x="80" y="165" as="sourcePoint" />
            <mxPoint x="120" y="165" as="targetPoint" />
          </mxGeometry>
        </mxCell>
        <mxCell id="9wXawAvI4jXOEfdN_TBU-49" value="" style="endArrow=open;html=1;rounded=0;dashed=1;targetPerimeterSpacing=13;endFill=0;entryX=0;entryY=0.5;entryDx=0;entryDy=0;" edge="1" parent="WIyWlLk6GJQsqaUBKTNV-1" target="9wXawAvI4jXOEfdN_TBU-6">
          <mxGeometry width="50" height="50" relative="1" as="geometry">
            <mxPoint x="80" y="69" as="sourcePoint" />
            <mxPoint x="170" y="-60" as="targetPoint" />
          </mxGeometry>
        </mxCell>
        <mxCell id="9wXawAvI4jXOEfdN_TBU-50" value="" style="endArrow=open;html=1;rounded=0;dashed=1;targetPerimeterSpacing=13;endFill=0;entryX=0;entryY=0.231;entryDx=0;entryDy=0;entryPerimeter=0;" edge="1" parent="WIyWlLk6GJQsqaUBKTNV-1">
          <mxGeometry width="50" height="50" relative="1" as="geometry">
            <mxPoint x="480" y="70" as="sourcePoint" />
            <mxPoint x="540" y="70.00600000000003" as="targetPoint" />
          </mxGeometry>
        </mxCell>
        <mxCell id="9wXawAvI4jXOEfdN_TBU-51" value="" style="endArrow=none;dashed=1;html=1;rounded=0;targetPerimeterSpacing=13;exitX=-0.005;exitY=0.216;exitDx=0;exitDy=0;exitPerimeter=0;" edge="1" parent="WIyWlLk6GJQsqaUBKTNV-1" source="9wXawAvI4jXOEfdN_TBU-37">
          <mxGeometry width="50" height="50" relative="1" as="geometry">
            <mxPoint x="430" y="210" as="sourcePoint" />
            <mxPoint x="480" y="160" as="targetPoint" />
          </mxGeometry>
        </mxCell>
        <mxCell id="9wXawAvI4jXOEfdN_TBU-52" value="" style="endArrow=none;dashed=1;html=1;rounded=0;targetPerimeterSpacing=13;" edge="1" parent="WIyWlLk6GJQsqaUBKTNV-1">
          <mxGeometry width="50" height="50" relative="1" as="geometry">
            <mxPoint x="480" y="160" as="sourcePoint" />
            <mxPoint x="480" y="70" as="targetPoint" />
          </mxGeometry>
        </mxCell>
        <mxCell id="9wXawAvI4jXOEfdN_TBU-54" value="Cell" style="swimlane;fontStyle=2;align=center;verticalAlign=top;childLayout=stackLayout;horizontal=1;startSize=26;horizontalStack=0;resizeParent=1;resizeLast=0;collapsible=1;marginBottom=0;rounded=0;shadow=0;strokeWidth=1;" vertex="1" parent="WIyWlLk6GJQsqaUBKTNV-1">
          <mxGeometry x="640" y="370" width="140" height="90" as="geometry">
            <mxRectangle x="230" y="140" width="160" height="26" as="alternateBounds" />
          </mxGeometry>
        </mxCell>
        <mxCell id="9wXawAvI4jXOEfdN_TBU-55" value="int value = 0;" style="text;align=left;verticalAlign=top;spacingLeft=4;spacingRight=4;overflow=hidden;rotatable=0;points=[[0,0.5],[1,0.5]];portConstraint=eastwest;" vertex="1" parent="9wXawAvI4jXOEfdN_TBU-54">
          <mxGeometry y="26" width="140" height="26" as="geometry" />
        </mxCell>
        <mxCell id="9wXawAvI4jXOEfdN_TBU-58" value="" style="line;html=1;strokeWidth=1;align=left;verticalAlign=middle;spacingTop=-1;spacingLeft=3;spacingRight=3;rotatable=0;labelPosition=right;points=[];portConstraint=eastwest;" vertex="1" parent="9wXawAvI4jXOEfdN_TBU-54">
          <mxGeometry y="52" width="140" height="8" as="geometry" />
        </mxCell>
        <mxCell id="9wXawAvI4jXOEfdN_TBU-59" value="setCharacter(int value);" style="text;align=left;verticalAlign=top;spacingLeft=4;spacingRight=4;overflow=hidden;rotatable=0;points=[[0,0.5],[1,0.5]];portConstraint=eastwest;" vertex="1" parent="9wXawAvI4jXOEfdN_TBU-54">
          <mxGeometry y="60" width="140" height="26" as="geometry" />
        </mxCell>
        <mxCell id="9wXawAvI4jXOEfdN_TBU-137" style="edgeStyle=orthogonalEdgeStyle;rounded=0;orthogonalLoop=1;jettySize=auto;html=1;entryX=1;entryY=0.5;entryDx=0;entryDy=0;endArrow=open;endFill=0;targetPerimeterSpacing=13;" edge="1" parent="WIyWlLk6GJQsqaUBKTNV-1" source="9wXawAvI4jXOEfdN_TBU-73" target="9wXawAvI4jXOEfdN_TBU-120">
          <mxGeometry relative="1" as="geometry">
            <Array as="points">
              <mxPoint x="600" y="839" />
              <mxPoint x="600" y="461" />
            </Array>
          </mxGeometry>
        </mxCell>
        <mxCell id="9wXawAvI4jXOEfdN_TBU-73" value="PlayingField" style="swimlane;fontStyle=2;align=center;verticalAlign=top;childLayout=stackLayout;horizontal=1;startSize=26;horizontalStack=0;resizeParent=1;resizeLast=0;collapsible=1;marginBottom=0;rounded=0;shadow=0;strokeWidth=1;" vertex="1" parent="WIyWlLk6GJQsqaUBKTNV-1">
          <mxGeometry x="640" y="770" width="140" height="138" as="geometry">
            <mxRectangle x="230" y="140" width="160" height="26" as="alternateBounds" />
          </mxGeometry>
        </mxCell>
        <mxCell id="9wXawAvI4jXOEfdN_TBU-74" value="Cell[][] field;" style="text;align=left;verticalAlign=top;spacingLeft=4;spacingRight=4;overflow=hidden;rotatable=0;points=[[0,0.5],[1,0.5]];portConstraint=eastwest;" vertex="1" parent="9wXawAvI4jXOEfdN_TBU-73">
          <mxGeometry y="26" width="140" height="26" as="geometry" />
        </mxCell>
        <mxCell id="9wXawAvI4jXOEfdN_TBU-77" value="" style="line;html=1;strokeWidth=1;align=left;verticalAlign=middle;spacingTop=-1;spacingLeft=3;spacingRight=3;rotatable=0;labelPosition=right;points=[];portConstraint=eastwest;" vertex="1" parent="9wXawAvI4jXOEfdN_TBU-73">
          <mxGeometry y="52" width="140" height="8" as="geometry" />
        </mxCell>
        <mxCell id="9wXawAvI4jXOEfdN_TBU-78" value="initField();" style="text;align=left;verticalAlign=top;spacingLeft=4;spacingRight=4;overflow=hidden;rotatable=0;points=[[0,0.5],[1,0.5]];portConstraint=eastwest;" vertex="1" parent="9wXawAvI4jXOEfdN_TBU-73">
          <mxGeometry y="60" width="140" height="26" as="geometry" />
        </mxCell>
        <mxCell id="9wXawAvI4jXOEfdN_TBU-79" value="setFigure();" style="text;align=left;verticalAlign=top;spacingLeft=4;spacingRight=4;overflow=hidden;rotatable=0;points=[[0,0.5],[1,0.5]];portConstraint=eastwest;" vertex="1" parent="9wXawAvI4jXOEfdN_TBU-73">
          <mxGeometry y="86" width="140" height="26" as="geometry" />
        </mxCell>
        <mxCell id="9wXawAvI4jXOEfdN_TBU-131" style="edgeStyle=orthogonalEdgeStyle;rounded=0;orthogonalLoop=1;jettySize=auto;html=1;entryX=0;entryY=0.5;entryDx=0;entryDy=0;endArrow=open;endFill=0;targetPerimeterSpacing=13;exitX=0.999;exitY=0.877;exitDx=0;exitDy=0;exitPerimeter=0;" edge="1" parent="WIyWlLk6GJQsqaUBKTNV-1" source="9wXawAvI4jXOEfdN_TBU-89" target="9wXawAvI4jXOEfdN_TBU-121">
          <mxGeometry relative="1" as="geometry">
            <Array as="points">
              <mxPoint x="300" y="487" />
              <mxPoint x="300" y="487" />
            </Array>
          </mxGeometry>
        </mxCell>
        <mxCell id="9wXawAvI4jXOEfdN_TBU-80" value="Logic" style="swimlane;fontStyle=2;align=center;verticalAlign=top;childLayout=stackLayout;horizontal=1;startSize=26;horizontalStack=0;resizeParent=1;resizeLast=0;collapsible=1;marginBottom=0;rounded=0;shadow=0;strokeWidth=1;" vertex="1" parent="WIyWlLk6GJQsqaUBKTNV-1">
          <mxGeometry x="30" y="360" width="160" height="360" as="geometry">
            <mxRectangle x="230" y="140" width="160" height="26" as="alternateBounds" />
          </mxGeometry>
        </mxCell>
        <mxCell id="9wXawAvI4jXOEfdN_TBU-81" value="int win = -1;" style="text;align=left;verticalAlign=top;spacingLeft=4;spacingRight=4;overflow=hidden;rotatable=0;points=[[0,0.5],[1,0.5]];portConstraint=eastwest;" vertex="1" parent="9wXawAvI4jXOEfdN_TBU-80">
          <mxGeometry y="26" width="160" height="26" as="geometry" />
        </mxCell>
        <mxCell id="9wXawAvI4jXOEfdN_TBU-82" value="int flagGame = 1; " style="text;align=left;verticalAlign=top;spacingLeft=4;spacingRight=4;overflow=hidden;rotatable=0;points=[[0,0.5],[1,0.5]];portConstraint=eastwest;rounded=0;shadow=0;html=0;" vertex="1" parent="9wXawAvI4jXOEfdN_TBU-80">
          <mxGeometry y="52" width="160" height="26" as="geometry" />
        </mxCell>
        <mxCell id="9wXawAvI4jXOEfdN_TBU-83" value="int[][] ves;" style="text;align=left;verticalAlign=top;spacingLeft=4;spacingRight=4;overflow=hidden;rotatable=0;points=[[0,0.5],[1,0.5]];portConstraint=eastwest;rounded=0;shadow=0;html=0;" vertex="1" parent="9wXawAvI4jXOEfdN_TBU-80">
          <mxGeometry y="78" width="160" height="26" as="geometry" />
        </mxCell>
        <mxCell id="9wXawAvI4jXOEfdN_TBU-89" value="int[][][] hod&#xa;;" style="text;align=left;verticalAlign=top;spacingLeft=4;spacingRight=4;overflow=hidden;rotatable=0;points=[[0,0.5],[1,0.5]];portConstraint=eastwest;rounded=0;shadow=0;html=0;" vertex="1" parent="9wXawAvI4jXOEfdN_TBU-80">
          <mxGeometry y="104" width="160" height="26" as="geometry" />
        </mxCell>
        <mxCell id="9wXawAvI4jXOEfdN_TBU-90" value="PlayingField field;" style="text;align=left;verticalAlign=top;spacingLeft=4;spacingRight=4;overflow=hidden;rotatable=0;points=[[0,0.5],[1,0.5]];portConstraint=eastwest;rounded=0;shadow=0;html=0;" vertex="1" parent="9wXawAvI4jXOEfdN_TBU-80">
          <mxGeometry y="130" width="160" height="26" as="geometry" />
        </mxCell>
        <mxCell id="9wXawAvI4jXOEfdN_TBU-84" value="" style="line;html=1;strokeWidth=1;align=left;verticalAlign=middle;spacingTop=-1;spacingLeft=3;spacingRight=3;rotatable=0;labelPosition=right;points=[];portConstraint=eastwest;" vertex="1" parent="9wXawAvI4jXOEfdN_TBU-80">
          <mxGeometry y="156" width="160" height="8" as="geometry" />
        </mxCell>
        <mxCell id="9wXawAvI4jXOEfdN_TBU-85" value="gameAnaliz(int v);" style="text;align=left;verticalAlign=top;spacingLeft=4;spacingRight=4;overflow=hidden;rotatable=0;points=[[0,0.5],[1,0.5]];portConstraint=eastwest;" vertex="1" parent="9wXawAvI4jXOEfdN_TBU-80">
          <mxGeometry y="164" width="160" height="26" as="geometry" />
        </mxCell>
        <mxCell id="9wXawAvI4jXOEfdN_TBU-86" value="int analize();" style="text;align=left;verticalAlign=top;spacingLeft=4;spacingRight=4;overflow=hidden;rotatable=0;points=[[0,0.5],[1,0.5]];portConstraint=eastwest;" vertex="1" parent="9wXawAvI4jXOEfdN_TBU-80">
          <mxGeometry y="190" width="160" height="26" as="geometry" />
        </mxCell>
        <mxCell id="9wXawAvI4jXOEfdN_TBU-91" value="Coord calcVes();" style="text;align=left;verticalAlign=top;spacingLeft=4;spacingRight=4;overflow=hidden;rotatable=0;points=[[0,0.5],[1,0.5]];portConstraint=eastwest;" vertex="1" parent="9wXawAvI4jXOEfdN_TBU-80">
          <mxGeometry y="216" width="160" height="26" as="geometry" />
        </mxCell>
        <mxCell id="9wXawAvI4jXOEfdN_TBU-92" value="Coord seachHod();" style="text;align=left;verticalAlign=top;spacingLeft=4;spacingRight=4;overflow=hidden;rotatable=0;points=[[0,0.5],[1,0.5]];portConstraint=eastwest;" vertex="1" parent="9wXawAvI4jXOEfdN_TBU-80">
          <mxGeometry y="242" width="160" height="26" as="geometry" />
        </mxCell>
        <mxCell id="9wXawAvI4jXOEfdN_TBU-93" value="int seachWin();" style="text;align=left;verticalAlign=top;spacingLeft=4;spacingRight=4;overflow=hidden;rotatable=0;points=[[0,0.5],[1,0.5]];portConstraint=eastwest;" vertex="1" parent="9wXawAvI4jXOEfdN_TBU-80">
          <mxGeometry y="268" width="160" height="26" as="geometry" />
        </mxCell>
        <mxCell id="9wXawAvI4jXOEfdN_TBU-128" style="edgeStyle=orthogonalEdgeStyle;rounded=0;orthogonalLoop=1;jettySize=auto;html=1;entryX=0;entryY=0.5;entryDx=0;entryDy=0;endArrow=open;endFill=0;targetPerimeterSpacing=13;" edge="1" parent="WIyWlLk6GJQsqaUBKTNV-1" source="9wXawAvI4jXOEfdN_TBU-96" target="9wXawAvI4jXOEfdN_TBU-112">
          <mxGeometry relative="1" as="geometry" />
        </mxCell>
        <mxCell id="9wXawAvI4jXOEfdN_TBU-96" value="Player" style="swimlane;fontStyle=2;align=center;verticalAlign=top;childLayout=stackLayout;horizontal=1;startSize=26;horizontalStack=0;resizeParent=1;resizeLast=0;collapsible=1;marginBottom=0;rounded=0;shadow=0;strokeWidth=1;" vertex="1" parent="WIyWlLk6GJQsqaUBKTNV-1">
          <mxGeometry x="260" y="760" width="160" height="112" as="geometry">
            <mxRectangle x="230" y="140" width="160" height="26" as="alternateBounds" />
          </mxGeometry>
        </mxCell>
        <mxCell id="9wXawAvI4jXOEfdN_TBU-97" value="int r1;" style="text;align=left;verticalAlign=top;spacingLeft=4;spacingRight=4;overflow=hidden;rotatable=0;points=[[0,0.5],[1,0.5]];portConstraint=eastwest;" vertex="1" parent="9wXawAvI4jXOEfdN_TBU-96">
          <mxGeometry y="26" width="160" height="26" as="geometry" />
        </mxCell>
        <mxCell id="9wXawAvI4jXOEfdN_TBU-122" value="Input input;" style="text;align=left;verticalAlign=top;spacingLeft=4;spacingRight=4;overflow=hidden;rotatable=0;points=[[0,0.5],[1,0.5]];portConstraint=eastwest;" vertex="1" parent="9wXawAvI4jXOEfdN_TBU-96">
          <mxGeometry y="52" width="160" height="26" as="geometry" />
        </mxCell>
        <mxCell id="9wXawAvI4jXOEfdN_TBU-102" value="" style="line;html=1;strokeWidth=1;align=left;verticalAlign=middle;spacingTop=-1;spacingLeft=3;spacingRight=3;rotatable=0;labelPosition=right;points=[];portConstraint=eastwest;" vertex="1" parent="9wXawAvI4jXOEfdN_TBU-96">
          <mxGeometry y="78" width="160" height="8" as="geometry" />
        </mxCell>
        <mxCell id="9wXawAvI4jXOEfdN_TBU-103" value="step();" style="text;align=left;verticalAlign=top;spacingLeft=4;spacingRight=4;overflow=hidden;rotatable=0;points=[[0,0.5],[1,0.5]];portConstraint=eastwest;" vertex="1" parent="9wXawAvI4jXOEfdN_TBU-96">
          <mxGeometry y="86" width="160" height="26" as="geometry" />
        </mxCell>
        <mxCell id="9wXawAvI4jXOEfdN_TBU-108" value="Start" style="swimlane;fontStyle=2;align=center;verticalAlign=top;childLayout=stackLayout;horizontal=1;startSize=26;horizontalStack=0;resizeParent=1;resizeLast=0;collapsible=1;marginBottom=0;rounded=0;shadow=0;strokeWidth=1;" vertex="1" parent="WIyWlLk6GJQsqaUBKTNV-1">
          <mxGeometry x="380" y="370" width="160" height="200" as="geometry">
            <mxRectangle x="230" y="140" width="160" height="26" as="alternateBounds" />
          </mxGeometry>
        </mxCell>
        <mxCell id="9wXawAvI4jXOEfdN_TBU-112" value="Player player;" style="text;align=left;verticalAlign=top;spacingLeft=4;spacingRight=4;overflow=hidden;rotatable=0;points=[[0,0.5],[1,0.5]];portConstraint=eastwest;rounded=0;shadow=0;html=0;" vertex="1" parent="9wXawAvI4jXOEfdN_TBU-108">
          <mxGeometry y="26" width="160" height="26" as="geometry" />
        </mxCell>
        <mxCell id="9wXawAvI4jXOEfdN_TBU-113" value=" Output output;" style="text;align=left;verticalAlign=top;spacingLeft=4;spacingRight=4;overflow=hidden;rotatable=0;points=[[0,0.5],[1,0.5]];portConstraint=eastwest;rounded=0;shadow=0;html=0;" vertex="1" parent="9wXawAvI4jXOEfdN_TBU-108">
          <mxGeometry y="52" width="160" height="26" as="geometry" />
        </mxCell>
        <mxCell id="9wXawAvI4jXOEfdN_TBU-120" value="PlayingField field;" style="text;align=left;verticalAlign=top;spacingLeft=4;spacingRight=4;overflow=hidden;rotatable=0;points=[[0,0.5],[1,0.5]];portConstraint=eastwest;rounded=0;shadow=0;html=0;" vertex="1" parent="9wXawAvI4jXOEfdN_TBU-108">
          <mxGeometry y="78" width="160" height="26" as="geometry" />
        </mxCell>
        <mxCell id="9wXawAvI4jXOEfdN_TBU-121" value="Logic logic;" style="text;align=left;verticalAlign=top;spacingLeft=4;spacingRight=4;overflow=hidden;rotatable=0;points=[[0,0.5],[1,0.5]];portConstraint=eastwest;rounded=0;shadow=0;html=0;" vertex="1" parent="9wXawAvI4jXOEfdN_TBU-108">
          <mxGeometry y="104" width="160" height="26" as="geometry" />
        </mxCell>
        <mxCell id="9wXawAvI4jXOEfdN_TBU-114" value="" style="line;html=1;strokeWidth=1;align=left;verticalAlign=middle;spacingTop=-1;spacingLeft=3;spacingRight=3;rotatable=0;labelPosition=right;points=[];portConstraint=eastwest;" vertex="1" parent="9wXawAvI4jXOEfdN_TBU-108">
          <mxGeometry y="130" width="160" height="8" as="geometry" />
        </mxCell>
        <mxCell id="9wXawAvI4jXOEfdN_TBU-115" value="startGame();" style="text;align=left;verticalAlign=top;spacingLeft=4;spacingRight=4;overflow=hidden;rotatable=0;points=[[0,0.5],[1,0.5]];portConstraint=eastwest;" vertex="1" parent="9wXawAvI4jXOEfdN_TBU-108">
          <mxGeometry y="138" width="160" height="26" as="geometry" />
        </mxCell>
        <mxCell id="9wXawAvI4jXOEfdN_TBU-116" value=" main(String[] args);" style="text;align=left;verticalAlign=top;spacingLeft=4;spacingRight=4;overflow=hidden;rotatable=0;points=[[0,0.5],[1,0.5]];portConstraint=eastwest;" vertex="1" parent="9wXawAvI4jXOEfdN_TBU-108">
          <mxGeometry y="164" width="160" height="26" as="geometry" />
        </mxCell>
        <mxCell id="9wXawAvI4jXOEfdN_TBU-130" style="edgeStyle=orthogonalEdgeStyle;rounded=0;orthogonalLoop=1;jettySize=auto;html=1;entryX=1.002;entryY=0.695;entryDx=0;entryDy=0;entryPerimeter=0;endArrow=open;endFill=0;targetPerimeterSpacing=13;" edge="1" parent="WIyWlLk6GJQsqaUBKTNV-1" source="9wXawAvI4jXOEfdN_TBU-66" target="9wXawAvI4jXOEfdN_TBU-91">
          <mxGeometry relative="1" as="geometry" />
        </mxCell>
        <mxCell id="9wXawAvI4jXOEfdN_TBU-64" value="Coord" style="swimlane;fontStyle=2;align=center;verticalAlign=top;childLayout=stackLayout;horizontal=1;startSize=26;horizontalStack=0;resizeParent=1;resizeLast=0;collapsible=1;marginBottom=0;rounded=0;shadow=0;strokeWidth=1;" vertex="1" parent="WIyWlLk6GJQsqaUBKTNV-1">
          <mxGeometry x="640" y="530" width="140" height="190" as="geometry">
            <mxRectangle x="230" y="140" width="160" height="26" as="alternateBounds" />
          </mxGeometry>
        </mxCell>
        <mxCell id="9wXawAvI4jXOEfdN_TBU-65" value="int x = -1;" style="text;align=left;verticalAlign=top;spacingLeft=4;spacingRight=4;overflow=hidden;rotatable=0;points=[[0,0.5],[1,0.5]];portConstraint=eastwest;" vertex="1" parent="9wXawAvI4jXOEfdN_TBU-64">
          <mxGeometry y="26" width="140" height="26" as="geometry" />
        </mxCell>
        <mxCell id="9wXawAvI4jXOEfdN_TBU-66" value="int y = -1;" style="text;align=left;verticalAlign=top;spacingLeft=4;spacingRight=4;overflow=hidden;rotatable=0;points=[[0,0.5],[1,0.5]];portConstraint=eastwest;rounded=0;shadow=0;html=0;" vertex="1" parent="9wXawAvI4jXOEfdN_TBU-64">
          <mxGeometry y="52" width="140" height="26" as="geometry" />
        </mxCell>
        <mxCell id="9wXawAvI4jXOEfdN_TBU-68" value="" style="line;html=1;strokeWidth=1;align=left;verticalAlign=middle;spacingTop=-1;spacingLeft=3;spacingRight=3;rotatable=0;labelPosition=right;points=[];portConstraint=eastwest;" vertex="1" parent="9wXawAvI4jXOEfdN_TBU-64">
          <mxGeometry y="78" width="140" height="8" as="geometry" />
        </mxCell>
        <mxCell id="9wXawAvI4jXOEfdN_TBU-69" value="int getX();" style="text;align=left;verticalAlign=top;spacingLeft=4;spacingRight=4;overflow=hidden;rotatable=0;points=[[0,0.5],[1,0.5]];portConstraint=eastwest;" vertex="1" parent="9wXawAvI4jXOEfdN_TBU-64">
          <mxGeometry y="86" width="140" height="26" as="geometry" />
        </mxCell>
        <mxCell id="9wXawAvI4jXOEfdN_TBU-70" value="setX(int x);" style="text;align=left;verticalAlign=top;spacingLeft=4;spacingRight=4;overflow=hidden;rotatable=0;points=[[0,0.5],[1,0.5]];portConstraint=eastwest;" vertex="1" parent="9wXawAvI4jXOEfdN_TBU-64">
          <mxGeometry y="112" width="140" height="26" as="geometry" />
        </mxCell>
        <mxCell id="9wXawAvI4jXOEfdN_TBU-71" value="getY();" style="text;align=left;verticalAlign=top;spacingLeft=4;spacingRight=4;overflow=hidden;rotatable=0;points=[[0,0.5],[1,0.5]];portConstraint=eastwest;" vertex="1" parent="9wXawAvI4jXOEfdN_TBU-64">
          <mxGeometry y="138" width="140" height="26" as="geometry" />
        </mxCell>
        <mxCell id="9wXawAvI4jXOEfdN_TBU-72" value="setY(int y);" style="text;align=left;verticalAlign=top;spacingLeft=4;spacingRight=4;overflow=hidden;rotatable=0;points=[[0,0.5],[1,0.5]];portConstraint=eastwest;" vertex="1" parent="9wXawAvI4jXOEfdN_TBU-64">
          <mxGeometry y="164" width="140" height="26" as="geometry" />
        </mxCell>
        <mxCell id="9wXawAvI4jXOEfdN_TBU-136" style="edgeStyle=orthogonalEdgeStyle;rounded=0;orthogonalLoop=1;jettySize=auto;html=1;entryX=1;entryY=0.5;entryDx=0;entryDy=0;endArrow=open;endFill=0;targetPerimeterSpacing=13;" edge="1" parent="WIyWlLk6GJQsqaUBKTNV-1" source="9wXawAvI4jXOEfdN_TBU-55" target="9wXawAvI4jXOEfdN_TBU-74">
          <mxGeometry relative="1" as="geometry">
            <Array as="points">
              <mxPoint x="800" y="409" />
              <mxPoint x="800" y="809" />
            </Array>
          </mxGeometry>
        </mxCell>
        <mxCell id="9wXawAvI4jXOEfdN_TBU-144" style="edgeStyle=orthogonalEdgeStyle;rounded=0;orthogonalLoop=1;jettySize=auto;html=1;endArrow=open;endFill=0;targetPerimeterSpacing=13;entryX=1;entryY=0.5;entryDx=0;entryDy=0;" edge="1" parent="WIyWlLk6GJQsqaUBKTNV-1" source="9wXawAvI4jXOEfdN_TBU-66" target="9wXawAvI4jXOEfdN_TBU-6">
          <mxGeometry relative="1" as="geometry">
            <mxPoint x="880" y="-94" as="targetPoint" />
            <Array as="points">
              <mxPoint x="840" y="595" />
              <mxPoint x="840" y="-10" />
              <mxPoint x="320" y="-10" />
              <mxPoint x="320" y="67" />
            </Array>
          </mxGeometry>
        </mxCell>
        <mxCell id="9wXawAvI4jXOEfdN_TBU-147" style="edgeStyle=orthogonalEdgeStyle;rounded=0;orthogonalLoop=1;jettySize=auto;html=1;endArrow=open;endFill=0;targetPerimeterSpacing=13;entryX=0;entryY=0.5;entryDx=0;entryDy=0;" edge="1" parent="WIyWlLk6GJQsqaUBKTNV-1" target="9wXawAvI4jXOEfdN_TBU-90">
          <mxGeometry relative="1" as="geometry">
            <mxPoint x="-40" y="510" as="targetPoint" />
            <mxPoint x="710" y="910" as="sourcePoint" />
            <Array as="points">
              <mxPoint x="710" y="940" />
              <mxPoint x="-20" y="940" />
              <mxPoint x="-20" y="503" />
            </Array>
          </mxGeometry>
        </mxCell>
      </root>
    </mxGraphModel>
  </diagram>
</mxfile>
